# This file uses centimeters as units for non-parametric coordinates.

mtllib secondfloor.mtl
g default
v 200.000000 0.000000 1400.000122
v 400.000000 0.000000 1400.000122
v 200.000000 350.000000 1400.000122
v 400.000000 350.000000 1400.000122
v 600.000000 0.000000 1400.000122
v 600.000000 350.000000 1400.000122
v 0.000007 0.000000 1395.389893
v 0.000007 350.000000 1395.389893
v -1600.000000 0.000000 1590.000000
v -1400.000000 0.000000 1590.000000
v -1600.000000 350.000000 1590.000000
v -1400.000000 350.000000 1590.000000
v -1800.000000 0.000000 1590.000000
v -1800.000000 350.000000 1590.000000
v -2000.000000 0.000000 1590.000000
v -2000.000000 350.000000 1590.000000
v -3800.000000 0.000000 1600.000000
v -3600.000000 0.000000 1600.000000
v -3800.000000 350.000000 1600.000000
v -3600.000000 350.000000 1600.000000
v -4000.000000 0.000000 1600.000000
v -4000.000000 350.000000 1600.000000
v -4380.000000 0.000000 1000.000000
v -4380.000000 0.000000 1200.000000
v -4380.000000 350.000000 1000.000000
v -4380.000000 350.000000 1200.000000
v -4380.000000 0.000000 1400.000000
v -4380.000000 350.000000 1400.000000
v -4380.000000 0.000000 1600.000000
v -4380.000000 350.000000 1600.000000
v -4400.000000 0.000000 2000.000000
v -4400.000000 350.000000 2000.000000
v -4400.000000 0.000000 2200.000000
v -4400.000000 350.000000 2200.000000
v -4400.000000 0.000000 2400.000000
v -4400.000000 350.000000 2400.000000
v -4400.000000 0.000000 2600.000000
v -4400.000000 350.000000 2600.000000
v -4000.000000 0.000000 1800.000000
v -4000.000000 350.000000 1800.000000
v -4000.000000 0.000000 2000.000000
v -4000.000000 350.000000 2000.000000
v -4000.000000 0.000000 2400.000000
v -4000.000000 0.000000 2200.000000
v -4000.000000 350.000000 2400.000000
v -4000.000000 350.000000 2200.000000
v -4000.000000 0.000000 2600.000000
v -4000.000000 350.000000 2600.000000
v 800.000000 0.000000 1000.000000
v 1000.000000 0.000000 1000.000000
v 800.000000 350.000000 1000.000000
v 1000.000000 350.000000 1000.000000
v 800.000000 0.000000 980.000000
v 1000.000000 0.000000 980.000000
v 800.000000 350.000000 980.000000
v 1000.000000 350.000000 980.000000
v 1200.000000 0.000000 1000.000000
v 1200.000000 350.000000 1000.000000
v 1200.000000 0.000000 980.000000
v 1200.000000 350.000000 980.000000
v 600.000000 0.000000 1000.000000
v 600.000000 350.000000 1000.000000
v 600.000000 0.000000 980.000000
v 600.000000 350.000000 980.000000
v 600.000000 0.000000 979.999939
v 600.000000 350.000000 979.999939
v 0.000015 0.000000 1200.000000
v 0.000015 350.000000 1200.000000
v -200.000000 0.000000 1000.000122
v 0.000000 0.000000 1000.000122
v -200.000000 350.000000 1000.000122
v 0.000000 350.000000 1000.000122
v -400.000000 0.000000 1000.000122
v -400.000000 350.000000 1000.000122
v 800.000000 0.000000 1400.000122
v 800.000000 350.000000 1400.000122
v 1000.000000 0.000000 1400.000122
v 1000.000000 350.000000 1400.000122
v 1200.000000 0.000000 1400.000122
v 1200.000000 350.000000 1400.000122
v -4380.000488 0.000000 1620.000122
v -4380.000488 350.000000 1620.000122
v 1200.000000 116.666679 1400.000122
v 1000.000000 116.666679 1400.000122
v 800.000000 116.666679 1400.000122
v 600.000000 116.666679 1400.000122
v 400.000000 116.666679 1400.000122
v 200.000000 116.666679 1400.000122
v 0.000007 116.666679 1395.389893
v 0.000015 116.666679 1200.000000
v 0.000000 116.666679 1000.000122
v -200.000000 116.666679 1000.000122
v -400.000000 116.666679 1000.000122
v 1200.000000 233.333344 1400.000122
v 1000.000000 233.333344 1400.000122
v 800.000000 233.333344 1400.000122
v 600.000000 233.333344 1400.000122
v 400.000000 233.333344 1400.000122
v 200.000000 233.333344 1400.000122
v 0.000007 233.333344 1395.389893
v 0.000015 233.333344 1200.000000
v 0.000000 233.333344 1000.000122
v -200.000000 233.333344 1000.000122
v -400.000000 233.333344 1000.000122
v 600.000000 116.666679 979.999939
v 600.000000 116.666679 1000.000000
v 800.000000 116.666679 1000.000000
v 1000.000000 116.666679 1000.000000
v 1200.000000 116.666679 1000.000000
v 1200.000000 116.666679 980.000000
v 1000.000000 116.666679 980.000000
v 800.000000 116.666679 980.000000
v 600.000000 116.666679 980.000000
v 600.000000 233.333344 979.999939
v 600.000000 233.333344 1000.000000
v 800.000000 233.333344 1000.000000
v 1000.000000 233.333344 1000.000000
v 1200.000000 233.333344 1000.000000
v 1200.000000 233.333344 980.000000
v 1000.000000 233.333344 980.000000
v 800.000000 233.333344 980.000000
v 600.000000 233.333344 980.000000
v -2000.000000 233.333313 1590.000000
v -1800.000000 233.333313 1590.000000
v -1600.000000 233.333313 1590.000000
v -1400.000000 233.333313 1590.000000
v -2000.000000 116.666656 1590.000000
v -1800.000000 116.666656 1590.000000
v -1600.000000 116.666656 1590.000000
v -1400.000000 116.666656 1590.000000
v -4000.000000 233.333313 2600.000000
v -4000.000000 233.333313 2400.000000
v -4000.000000 233.333313 2200.000000
v -4000.000000 233.333313 2000.000000
v -4000.000000 233.333313 1800.000000
v -4000.000000 233.333313 1600.000000
v -3800.000000 233.333313 1600.000000
v -3600.000000 233.333313 1600.000000
v -4000.000000 116.666656 2600.000000
v -4000.000000 116.666656 2400.000000
v -4000.000000 116.666656 2200.000000
v -4000.000000 116.666656 2000.000000
v -4000.000000 116.666656 1800.000000
v -4000.000000 116.666656 1600.000000
v -3800.000000 116.666656 1600.000000
v -3600.000000 116.666656 1600.000000
v -4396.097168 0.000000 1620.000122
v -4396.097168 350.000000 1620.000122
v -4380.000000 233.333313 1000.000000
v -4380.000000 233.333313 1200.000000
v -4380.000000 233.333313 1400.000000
v -4380.000000 233.333313 1600.000000
v -4380.000488 233.333313 1620.000122
v -4396.097168 233.333313 1620.000122
v -4380.000000 116.666656 1000.000000
v -4380.000000 116.666656 1200.000000
v -4380.000000 116.666656 1400.000000
v -4380.000000 116.666656 1600.000000
v -4380.000488 116.666656 1620.000122
v -4396.097168 116.666656 1620.000122
v -4400.000000 350.000000 1799.785645
v -4400.000000 0.000000 1799.785645
v -4400.000000 116.666679 2600.000000
v -4400.000000 116.666679 2400.000000
v -4400.000000 116.666679 2200.000000
v -4400.000000 116.666679 2000.000000
v -4400.000000 116.666679 1799.785645
v -4400.000000 233.333344 2600.000000
v -4400.000000 233.333344 2400.000000
v -4400.000000 233.333344 2200.000000
v -4400.000000 233.333344 2000.000000
v -4400.000000 233.333344 1799.785645
vt 0.501141 0.117308
vt 0.501141 0.175717
vt 0.401010 0.175717
vt 0.401010 0.117308
vt 0.300880 0.175717
vt 0.300880 0.117308
vt 0.601298 0.117308
vt 0.601298 0.175718
vt 0.168240 0.526334
vt 0.168240 0.584743
vt 0.068110 0.584743
vt 0.068110 0.526334
vt 0.268371 0.526334
vt 0.268371 0.584743
vt 0.368501 0.526333
vt 0.368501 0.584743
vt 0.100619 0.175771
vt 0.100619 0.234181
vt 0.000488 0.234181
vt 0.000488 0.175772
vt 0.200749 0.175771
vt 0.200749 0.234181
vt 0.593665 0.351052
vt 0.593665 0.409461
vt 0.493534 0.409461
vt 0.493535 0.351052
vt 0.393404 0.409462
vt 0.393404 0.351052
vt 0.293273 0.409462
vt 0.293273 0.351052
vt 0.896796 0.467870
vt 0.896797 0.526279
vt 0.796666 0.526280
vt 0.796666 0.467870
vt 0.696535 0.526280
vt 0.696535 0.467871
vt 0.596405 0.526280
vt 0.596405 0.467871
vt 0.300880 0.175771
vt 0.300880 0.234180
vt 0.401010 0.175771
vt 0.401010 0.234180
vt 0.601271 0.175771
vt 0.601271 0.234180
vt 0.501141 0.234180
vt 0.501141 0.175771
vt 0.701402 0.175771
vt 0.701402 0.234180
vt 0.795302 0.643152
vt 0.895432 0.643152
vt 0.895432 0.701561
vt 0.795302 0.701561
vt 0.582682 0.643152
vt 0.582682 0.701562
vt 0.482551 0.701562
vt 0.482551 0.643152
vt 0.372408 0.643152
vt 0.372408 0.701562
vt 0.382421 0.701562
vt 0.382421 0.643152
vt 0.695171 0.643152
vt 0.695171 0.701561
vt 0.682812 0.643152
vt 0.682812 0.701562
vt 0.685158 0.701561
vt 0.685158 0.643152
vt 0.899381 0.117309
vt 0.899381 0.175718
vt 0.799251 0.175718
vt 0.799251 0.117308
vt 0.999512 0.117309
vt 0.999512 0.175718
vt 0.200749 0.175717
vt 0.200749 0.117307
vt 0.100619 0.175717
vt 0.100619 0.117307
vt 0.000488 0.175717
vt 0.000488 0.117307
vt 0.699120 0.117308
vt 0.699120 0.175718
vt 0.100619 0.000488
vt 0.100619 0.058898
vt 0.000488 0.058898
vt 0.000489 0.000488
vt 0.200749 0.000489
vt 0.200749 0.058898
vt 0.300880 0.000489
vt 0.300880 0.058898
vt 0.401010 0.000489
vt 0.401010 0.058898
vt 0.501141 0.000489
vt 0.501141 0.058899
vt 0.601298 0.000489
vt 0.601298 0.058899
vt 0.699120 0.000489
vt 0.699120 0.058899
vt 0.799251 0.058899
vt 0.799251 0.000490
vt 0.899381 0.000490
vt 0.899381 0.058899
vt 0.999512 0.000490
vt 0.999512 0.058899
vt 0.695171 0.526333
vt 0.695171 0.584742
vt 0.685158 0.584742
vt 0.685158 0.526333
vt 0.795301 0.526333
vt 0.795302 0.584742
vt 0.895432 0.526332
vt 0.895432 0.584742
vt 0.995562 0.526332
vt 0.372408 0.584743
vt 0.382421 0.584743
vt 0.382421 0.526333
vt 0.482551 0.526333
vt 0.482551 0.584743
vt 0.582682 0.526333
vt 0.582682 0.584743
vt 0.682812 0.526334
vt 0.682812 0.584743
vt 0.368502 0.643152
vt 0.368502 0.701562
vt 0.268371 0.701562
vt 0.268371 0.643153
vt 0.168241 0.643153
vt 0.168241 0.701562
vt 0.068110 0.643153
vt 0.068110 0.701562
vt 0.701402 0.292589
vt 0.701402 0.350999
vt 0.601271 0.350999
vt 0.601271 0.292590
vt 0.501141 0.292590
vt 0.501141 0.350999
vt 0.401010 0.292590
vt 0.401010 0.350999
vt 0.300880 0.292590
vt 0.300880 0.350999
vt 0.200749 0.292590
vt 0.200749 0.351000
vt 0.100619 0.292590
vt 0.100619 0.351000
vt 0.000488 0.292590
vt 0.000488 0.351000
vt 0.283260 0.409462
vt 0.283260 0.351053
vt 0.275201 0.409462
vt 0.275201 0.351052
vt 0.593665 0.467871
vt 0.593665 0.526280
vt 0.493535 0.526281
vt 0.493535 0.467871
vt 0.393404 0.467871
vt 0.393404 0.526281
vt 0.293274 0.467871
vt 0.293274 0.526281
vt 0.283260 0.467871
vt 0.283261 0.526281
vt 0.275202 0.467871
vt 0.275202 0.526281
vt 0.997034 0.467870
vt 0.997034 0.526279
vt 0.696535 0.351052
vt 0.696535 0.409461
vt 0.596405 0.409461
vt 0.596404 0.351052
vt 0.796665 0.351051
vt 0.796666 0.409461
vt 0.896796 0.351051
vt 0.896796 0.409461
vt 0.997034 0.409460
vt 0.997034 0.351051
vt 0.995562 0.643151
vt 0.995563 0.701561
vt 0.995562 0.584742
vt 0.372408 0.526333
vn 0.000000 0.000000 -1.000000
vn 0.000000 0.000000 -1.000000
vn 0.000000 0.000000 -1.000000
vn 0.000000 0.000000 -1.000000
vn 0.000000 0.000000 -1.000000
vn 0.000000 0.000000 -1.000000
vn 0.000000 0.000000 -1.000000
vn 0.000000 0.000000 -1.000000
vn 0.023045 0.000000 -0.999734
vn 0.023045 0.000000 -0.999734
vn 0.023045 0.000000 -0.999734
vn 0.023045 0.000000 -0.999734
vn 0.000000 0.000000 -1.000000
vn 0.000000 0.000000 -1.000000
vn 0.000000 0.000000 -1.000000
vn 0.000000 0.000000 -1.000000
vn 0.000000 0.000000 -1.000000
vn 0.000000 0.000000 -1.000000
vn 0.000000 0.000000 -1.000000
vn 0.000000 0.000000 -1.000000
vn 0.000000 0.000000 -1.000000
vn 0.000000 0.000000 -1.000000
vn 0.000000 0.000000 -1.000000
vn 0.000000 0.000000 -1.000000
vn 0.000000 0.000000 -1.000000
vn 0.000000 0.000000 -1.000000
vn 0.000000 0.000000 -1.000000
vn 0.000000 0.000000 -1.000000
vn 0.000000 0.000000 -1.000000
vn 0.000000 0.000000 -1.000000
vn 0.000000 0.000000 -1.000000
vn 0.000000 0.000000 -1.000000
vn 1.000000 0.000000 0.000000
vn 1.000000 0.000000 0.000000
vn 1.000000 0.000000 0.000000
vn 1.000000 0.000000 0.000000
vn 1.000000 0.000000 0.000000
vn 1.000000 0.000000 0.000000
vn 1.000000 0.000000 0.000000
vn 1.000000 0.000000 0.000000
vn 1.000000 0.000000 0.000000
vn 1.000000 0.000000 0.000000
vn 1.000000 0.000000 0.000000
vn 1.000000 0.000000 0.000000
vn 1.000000 0.000000 0.000000
vn 1.000000 0.000000 0.000000
vn 1.000000 0.000000 0.000000
vn 1.000000 0.000000 0.000000
vn 1.000000 0.000000 0.000000
vn 1.000000 0.000000 0.000000
vn 1.000000 0.000000 0.000000
vn 1.000000 0.000000 0.000000
vn 1.000000 0.000000 0.000000
vn 1.000000 0.000000 0.000000
vn 1.000000 0.000000 0.000000
vn 1.000000 0.000000 0.000000
vn -1.000000 0.000000 0.000000
vn -1.000000 0.000000 0.000000
vn -1.000000 0.000000 0.000000
vn -1.000000 0.000000 0.000000
vn -1.000000 0.000000 0.000000
vn -1.000000 0.000000 0.000000
vn -1.000000 0.000000 0.000000
vn -1.000000 0.000000 0.000000
vn -1.000000 0.000000 0.000000
vn -1.000000 0.000000 0.000000
vn -1.000000 0.000000 0.000000
vn -1.000000 0.000000 0.000000
vn -1.000000 0.000000 0.000000
vn -1.000000 0.000000 0.000000
vn -1.000000 0.000000 0.000000
vn -1.000000 0.000000 0.000000
vn -1.000000 0.000000 0.000000
vn -1.000000 0.000000 0.000000
vn -1.000000 0.000000 0.000000
vn -1.000000 0.000000 0.000000
vn 0.000000 0.000000 1.000000
vn 0.000000 0.000000 1.000000
vn 0.000000 0.000000 1.000000
vn 0.000000 0.000000 1.000000
vn 0.000000 0.000000 -1.000000
vn 0.000000 0.000000 -1.000000
vn 0.000000 0.000000 -1.000000
vn 0.000000 0.000000 -1.000000
vn 0.000000 0.000000 1.000000
vn 0.000000 0.000000 1.000000
vn 0.000000 0.000000 1.000000
vn 0.000000 0.000000 1.000000
vn 0.000000 0.000000 -1.000000
vn 0.000000 0.000000 -1.000000
vn 0.000000 0.000000 -1.000000
vn 0.000000 0.000000 -1.000000
vn 0.000000 0.000000 1.000000
vn 0.000000 0.000000 1.000000
vn 0.000000 0.000000 1.000000
vn 0.000000 0.000000 1.000000
vn 0.000000 0.000000 -1.000000
vn 0.000000 0.000000 -1.000000
vn 0.000000 0.000000 -1.000000
vn 0.000000 0.000000 -1.000000
vn -1.000000 0.000000 0.000000
vn -1.000000 0.000000 0.000000
vn -1.000000 0.000000 0.000000
vn -1.000000 0.000000 0.000000
vn 0.000000 0.000000 -1.000000
vn 0.000000 0.000000 -1.000000
vn 0.000000 0.000000 -1.000000
vn 0.000000 0.000000 -1.000000
vn 0.000000 0.000000 -1.000000
vn 0.000000 0.000000 -1.000000
vn 0.000000 0.000000 -1.000000
vn 0.000000 0.000000 -1.000000
vn 0.000000 0.000000 -1.000000
vn 0.000000 0.000000 -1.000000
vn 0.000000 0.000000 -1.000000
vn 0.000000 0.000000 -1.000000
vn 0.000000 0.000000 -1.000000
vn 0.000000 0.000000 -1.000000
vn 0.000000 0.000000 -1.000000
vn 0.000000 0.000000 -1.000000
vn 0.000000 0.000000 -1.000000
vn 0.000000 0.000000 -1.000000
vn 0.000000 0.000000 -1.000000
vn 0.000000 0.000000 -1.000000
vn 1.000000 0.000000 0.000000
vn 1.000000 0.000000 0.000000
vn 1.000000 0.000000 0.000000
vn 1.000000 0.000000 0.000000
vn 1.000000 0.000000 -0.000000
vn 1.000000 0.000000 -0.000000
vn 1.000000 0.000000 -0.000000
vn 1.000000 0.000000 -0.000000
vn 0.000000 0.000000 -1.000000
vn 0.000000 0.000000 -1.000000
vn 0.000000 0.000000 -1.000000
vn 0.000000 0.000000 -1.000000
vn 0.000000 0.000000 -1.000000
vn 0.000000 0.000000 -1.000000
vn 0.000000 0.000000 -1.000000
vn 0.000000 0.000000 -1.000000
vn 0.000000 0.000000 -1.000000
vn 0.000000 0.000000 -1.000000
vn 0.000000 0.000000 -1.000000
vn 0.000000 0.000000 -1.000000
vn 0.000000 0.000000 -1.000000
vn 0.000000 0.000000 -1.000000
vn 0.000000 0.000000 -1.000000
vn 0.000000 0.000000 -1.000000
vn 0.000000 0.000000 -1.000000
vn 0.000000 0.000000 -1.000000
vn 0.000000 0.000000 -1.000000
vn 0.000000 0.000000 -1.000000
vn 0.023045 0.000000 -0.999734
vn 0.023045 0.000000 -0.999734
vn 0.023045 0.000000 -0.999734
vn 0.023045 0.000000 -0.999734
vn 1.000000 0.000000 0.000000
vn 1.000000 0.000000 0.000000
vn 1.000000 0.000000 0.000000
vn 1.000000 0.000000 0.000000
vn 1.000000 0.000000 -0.000000
vn 1.000000 0.000000 -0.000000
vn 1.000000 0.000000 -0.000000
vn 1.000000 0.000000 -0.000000
vn 0.000000 0.000000 -1.000000
vn 0.000000 0.000000 -1.000000
vn 0.000000 0.000000 -1.000000
vn 0.000000 0.000000 -1.000000
vn 0.000000 0.000000 -1.000000
vn 0.000000 0.000000 -1.000000
vn 0.000000 0.000000 -1.000000
vn 0.000000 0.000000 -1.000000
vn 1.000000 0.000000 0.000000
vn 1.000000 0.000000 0.000000
vn 1.000000 0.000000 0.000000
vn 1.000000 0.000000 0.000000
vn -1.000000 0.000000 0.000000
vn -1.000000 0.000000 0.000000
vn -1.000000 0.000000 0.000000
vn -1.000000 0.000000 0.000000
vn 0.000000 0.000000 1.000000
vn 0.000000 0.000000 1.000000
vn 0.000000 0.000000 1.000000
vn 0.000000 0.000000 1.000000
vn 0.000000 0.000000 1.000000
vn 0.000000 0.000000 1.000000
vn 0.000000 0.000000 1.000000
vn 0.000000 0.000000 1.000000
vn 0.000000 0.000000 1.000000
vn 0.000000 0.000000 1.000000
vn 0.000000 0.000000 1.000000
vn 0.000000 0.000000 1.000000
vn 1.000000 0.000000 0.000000
vn 1.000000 0.000000 0.000000
vn 1.000000 0.000000 0.000000
vn 1.000000 0.000000 0.000000
vn 0.000000 0.000000 -1.000000
vn 0.000000 0.000000 -1.000000
vn 0.000000 0.000000 -1.000000
vn 0.000000 0.000000 -1.000000
vn 0.000000 0.000000 -1.000000
vn 0.000000 0.000000 -1.000000
vn 0.000000 0.000000 -1.000000
vn 0.000000 0.000000 -1.000000
vn 0.000000 0.000000 -1.000000
vn 0.000000 0.000000 -1.000000
vn 0.000000 0.000000 -1.000000
vn 0.000000 0.000000 -1.000000
vn 0.000000 0.000000 -1.000000
vn 0.000000 0.000000 -1.000000
vn 0.000000 0.000000 -1.000000
vn 0.000000 0.000000 -1.000000
vn 0.000000 0.000000 -1.000000
vn 0.000000 0.000000 -1.000000
vn 0.000000 0.000000 -1.000000
vn 0.000000 0.000000 -1.000000
vn 0.000000 0.000000 -1.000000
vn 0.000000 0.000000 -1.000000
vn 0.000000 0.000000 -1.000000
vn 0.000000 0.000000 -1.000000
vn -1.000000 0.000000 0.000000
vn -1.000000 0.000000 0.000000
vn -1.000000 0.000000 0.000000
vn -1.000000 0.000000 0.000000
vn -1.000000 0.000000 0.000000
vn -1.000000 0.000000 0.000000
vn -1.000000 0.000000 0.000000
vn -1.000000 0.000000 0.000000
vn -1.000000 0.000000 0.000000
vn -1.000000 0.000000 0.000000
vn -1.000000 0.000000 0.000000
vn -1.000000 0.000000 0.000000
vn -1.000000 0.000000 0.000000
vn -1.000000 0.000000 0.000000
vn -1.000000 0.000000 0.000000
vn -1.000000 0.000000 0.000000
vn -1.000000 0.000000 0.000000
vn -1.000000 0.000000 0.000000
vn -1.000000 0.000000 0.000000
vn -1.000000 0.000000 0.000000
vn 0.000000 0.000000 -1.000000
vn 0.000000 0.000000 -1.000000
vn 0.000000 0.000000 -1.000000
vn 0.000000 0.000000 -1.000000
vn 0.000000 0.000000 -1.000000
vn 0.000000 0.000000 -1.000000
vn 0.000000 0.000000 -1.000000
vn 0.000000 0.000000 -1.000000
vn 1.000000 0.000000 0.000024
vn 1.000000 0.000000 0.000024
vn 1.000000 0.000000 0.000024
vn 1.000000 0.000000 0.000024
vn 0.000000 0.000000 1.000000
vn 0.000000 0.000000 1.000000
vn 0.000000 0.000000 1.000000
vn 0.000000 0.000000 1.000000
vn 1.000000 0.000000 0.000000
vn 1.000000 0.000000 0.000000
vn 1.000000 0.000000 0.000000
vn 1.000000 0.000000 0.000000
vn 1.000000 0.000000 0.000000
vn 1.000000 0.000000 0.000000
vn 1.000000 0.000000 0.000000
vn 1.000000 0.000000 0.000000
vn 1.000000 0.000000 0.000000
vn 1.000000 0.000000 0.000000
vn 1.000000 0.000000 0.000000
vn 1.000000 0.000000 0.000000
vn 1.000000 0.000000 0.000024
vn 1.000000 0.000000 0.000024
vn 1.000000 0.000000 0.000024
vn 1.000000 0.000000 0.000024
vn 0.000000 0.000000 1.000000
vn 0.000000 0.000000 1.000000
vn 0.000000 0.000000 1.000000
vn 0.000000 0.000000 1.000000
vn 1.000000 0.000000 0.000000
vn 1.000000 0.000000 0.000000
vn 1.000000 0.000000 0.000000
vn 1.000000 0.000000 0.000000
vn 1.000000 0.000000 0.000000
vn 1.000000 0.000000 0.000000
vn 1.000000 0.000000 0.000000
vn 1.000000 0.000000 0.000000
vn 1.000000 0.000000 0.000000
vn 1.000000 0.000000 0.000000
vn 1.000000 0.000000 0.000000
vn 1.000000 0.000000 0.000000
vn 1.000000 0.000000 0.000000
vn 1.000000 0.000000 0.000000
vn 1.000000 0.000000 0.000000
vn 1.000000 0.000000 0.000000
vn 1.000000 0.000000 0.000000
vn 1.000000 0.000000 0.000000
vn 1.000000 0.000000 0.000000
vn 1.000000 0.000000 0.000000
s 1
g P_AFrameWall
usemtl P_AFrameWallSG
f 99/1/1 3/2/2 4/3/3 98/4/4
s 2
f 98/4/5 4/3/6 6/5/7 97/6/8
s 3
f 100/7/9 8/8/10 3/2/11 99/1/12
s 4
f 9/9/13 129/10/14 130/11/15 10/12/16
s 5
f 13/13/17 128/14/18 129/10/19 9/9/20
s 6
f 15/15/21 127/16/22 128/14/23 13/13/24
s 7
f 17/17/25 145/18/26 146/19/27 18/20/28
s 8
f 21/21/29 144/22/30 145/18/31 17/17/32
s 9
f 23/23/33 155/24/34 156/25/35 24/26/36
s 10
f 24/26/37 156/25/38 157/27/39 27/28/40
s 11
f 27/28/41 157/27/42 158/29/43 29/30/44
s 12
f 171/31/45 32/32/46 34/33/47 170/34/48
s 13
f 170/34/49 34/33/50 36/35/51 169/36/52
s 14
f 169/36/53 36/35/54 38/37/55 168/38/56
s 15
f 39/39/57 143/40/58 144/22/59 21/21/60
s 16
f 41/41/61 142/42/62 143/40/63 39/39/64
s 17
f 43/43/65 140/44/66 141/45/67 44/46/68
s 18
f 44/46/69 141/45/70 142/42/71 41/41/72
s 19
f 47/47/73 139/48/74 140/44/75 43/43/76
s 20
f 116/49/77 117/50/78 52/51/79 51/52/80
s 21
f 121/53/81 55/54/82 56/55/83 120/56/84
s 22
f 117/50/85 118/173/86 58/174/87 52/51/88
s 23
f 120/56/89 56/55/90 60/59/91 119/60/92
s 24
f 115/61/93 116/49/94 51/52/95 62/62/96
s 25
f 122/63/97 64/64/98 55/54/99 121/53/100
s 26
f 115/61/101 62/62/102 66/65/103 114/66/104
s 27
f 103/67/105 71/68/106 72/69/107 102/70/108
s 28
f 104/71/109 74/72/110 71/68/111 103/67/112
s 29
f 97/6/113 6/5/114 76/73/115 96/74/116
s 30
f 96/74/117 76/73/118 78/75/119 95/76/120
s 31
f 95/76/121 78/75/122 80/77/123 94/78/124
s 32
f 101/79/125 68/80/126 8/8/127 100/7/128
s 33
f 68/80/129 101/79/130 102/70/131 72/69/132
s 31
f 77/81/133 84/82/134 83/83/135 79/84/136
s 30
f 75/85/137 85/86/138 84/82/139 77/81/140
s 29
f 5/87/141 86/88/142 85/86/143 75/85/144
s 2
f 2/89/145 87/90/146 86/88/147 5/87/148
s 1
f 1/91/149 88/92/150 87/90/151 2/89/152
s 3
f 7/93/153 89/94/154 88/92/155 1/91/156
s 32
f 67/95/157 90/96/158 89/94/159 7/93/160
s 33
f 91/97/161 90/96/162 67/95/163 70/98/164
s 27
f 69/99/165 92/100/166 91/97/167 70/98/168
s 28
f 73/101/169 93/102/170 92/100/171 69/99/172
s 31
f 84/82/134 95/76/121 94/78/124 83/83/135
s 30
f 85/86/138 96/74/117 95/76/120 84/82/139
s 29
f 86/88/142 97/6/113 96/74/116 85/86/143
s 2
f 87/90/146 98/4/5 97/6/8 86/88/147
s 1
f 88/92/150 99/1/1 98/4/4 87/90/151
s 3
f 89/94/154 100/7/9 99/1/12 88/92/155
s 32
f 90/96/158 101/79/125 100/7/128 89/94/159
s 33
f 102/70/131 101/79/130 90/96/162 91/97/161
s 27
f 92/100/166 103/67/105 102/70/108 91/97/167
s 28
f 93/102/170 104/71/109 103/67/112 92/100/171
s 34
f 58/58/173 118/57/174 119/60/175 60/59/176
s 26
f 61/103/177 106/104/178 105/105/179 65/106/180
s 24
f 61/103/181 49/107/182 107/108/183 106/104/184
s 20
f 49/107/185 50/109/186 108/110/187 107/108/188
s 22
f 50/109/189 57/111/190 109/175/191 108/110/192
s 34
f 110/113/193 109/112/194 57/176/195 59/114/196
s 23
f 54/115/197 111/116/198 110/113/199 59/114/200
s 21
f 53/117/201 112/118/202 111/116/203 54/115/204
s 25
f 63/119/205 113/120/206 112/118/207 53/117/208
s 26
f 106/104/178 115/61/101 114/66/104 105/105/179
s 24
f 106/104/184 107/108/183 116/49/94 115/61/93
s 20
f 107/108/188 108/110/187 117/50/78 116/49/77
s 22
f 108/110/192 109/175/191 118/173/86 117/50/85
s 34
f 119/60/175 118/57/174 109/112/194 110/113/193
s 23
f 111/116/198 120/56/89 119/60/92 110/113/199
s 21
f 112/118/202 121/53/81 120/56/84 111/116/203
s 25
f 113/120/206 122/63/97 121/53/100 112/118/207
s 6
f 123/121/209 16/122/210 14/123/211 124/124/212
s 5
f 125/125/213 124/124/214 14/123/215 11/126/216
s 4
f 126/127/217 125/125/218 11/126/219 12/128/220
s 6
f 127/16/22 123/121/209 124/124/212 128/14/23
s 5
f 129/10/19 128/14/18 124/124/214 125/125/213
s 4
f 130/11/15 129/10/14 125/125/218 126/127/217
s 19
f 131/129/221 48/130/222 45/131/223 132/132/224
s 17
f 133/133/225 132/132/226 45/131/227 46/134/228
s 18
f 134/135/229 133/133/230 46/134/231 42/136/232
s 16
f 135/137/233 134/135/234 42/136/235 40/138/236
s 15
f 136/139/237 135/137/238 40/138/239 22/140/240
s 8
f 137/141/241 136/139/242 22/140/243 19/142/244
s 7
f 138/143/245 137/141/246 19/142/247 20/144/248
s 19
f 139/48/74 131/129/221 132/132/224 140/44/75
s 17
f 141/45/67 140/44/66 132/132/226 133/133/225
s 18
f 142/42/71 141/45/70 133/133/230 134/135/229
s 16
f 143/40/63 142/42/62 134/135/234 135/137/233
s 15
f 144/22/59 143/40/58 135/137/238 136/139/237
s 8
f 145/18/31 144/22/30 136/139/242 137/141/241
s 7
f 146/19/27 145/18/26 137/141/246 138/143/245
s 35
f 29/30/249 158/29/250 159/145/251 81/146/252
s 36
f 81/146/253 159/145/254 160/147/255 147/148/256
s 9
f 149/149/257 25/150/258 26/151/259 150/152/260
s 10
f 151/153/261 150/152/262 26/151/263 28/154/264
s 11
f 152/155/265 151/153/266 28/154/267 30/156/268
s 35
f 153/157/269 152/155/270 30/156/271 82/158/272
s 36
f 154/159/273 153/157/274 82/158/275 148/160/276
s 9
f 155/24/34 149/149/257 150/152/260 156/25/35
s 10
f 157/27/39 156/25/38 150/152/262 151/153/261
s 11
f 158/29/43 157/27/42 151/153/266 152/155/265
s 35
f 159/145/251 158/29/250 152/155/270 153/157/269
s 36
f 160/147/255 159/145/254 153/157/274 154/159/273
s 37
f 32/32/277 171/31/278 172/161/279 161/162/280
s 14
f 35/163/281 164/164/282 163/165/283 37/166/284
s 13
f 33/167/285 165/168/286 164/164/287 35/163/288
s 12
f 31/169/289 166/170/290 165/168/291 33/167/292
s 37
f 167/171/293 166/170/294 31/169/295 162/172/296
s 14
f 164/164/282 169/36/53 168/38/56 163/165/283
s 13
f 165/168/286 170/34/49 169/36/52 164/164/287
s 12
f 166/170/290 171/31/45 170/34/48 165/168/291
s 37
f 172/161/279 171/31/278 166/170/294 167/171/293
