# This file uses centimeters as units for non-parametric coordinates.

mtllib 01.mtl
g default
v 100.000000 0.000000 0.000000
v -100.000000 0.000000 0.000000
v 100.000000 350.000000 -0.000000
v -100.000000 350.000000 -0.000000
vt 0.783103 0.004570
vt 0.216897 0.004570
vt 0.783103 0.995430
vt 0.216897 0.995430
vn 0.000000 0.000000 1.000000
vn 0.000000 0.000000 1.000000
vn 0.000000 0.000000 1.000000
vn 0.000000 0.000000 1.000000
vn 0.000000 0.000000 1.000000
vn 0.000000 0.000000 1.000000
s off
g In InnerWallFBXASC0321
usemtl VRayMtl1SG
f 1/1/1 4/4/2 2/2/3
f 4/4/4 1/1/5 3/3/6
